<?xml version="1.0" encoding="UTF-8"?>
<svg xmlns="http://www.w3.org/2000/svg" viewBox="0 0 400 400" role="img" aria-label="Purple deep lip rim">
  <title>Purple deep lip rim</title>
  <defs>
    <radialGradient id="lip-tire" cx="50%" cy="48%">
      <stop offset="74%" stop-color="#0a0a0a"/>
      <stop offset="86%" stop-color="#1f1f24"/>
      <stop offset="100%" stop-color="#050506"/>
    </radialGradient>
    <linearGradient id="lip-lip" x1="0" y1="0" x2="1" y2="1"><stop offset="0%" stop-color="#e0b0ff"/><stop offset="33%" stop-color="#7b2cbf"/><stop offset="67%" stop-color="#c77dff"/><stop offset="100%" stop-color="#240046"/></linearGradient>
    <linearGradient id="lip-spk" x1="0" y1="0" x2="1" y2="1"><stop offset="0%" stop-color="#c77dff"/><stop offset="50%" stop-color="#3c096c"/><stop offset="100%" stop-color="#e0aaff"/></linearGradient>
    <radialGradient id="lip-cap" cx="35%" cy="30%">
      <stop offset="0%" stop-color="#ffffff"/>
      <stop offset="55%" stop-color="#9d4edd"/>
      <stop offset="100%" stop-color="#222"/>
    </radialGradient>
  </defs>
  <rect width="400" height="400" fill="#050505"/>
  <circle cx="200" cy="200" r="196" fill="url(#lip-tire)"/>
  <circle cx="200" cy="200" r="168" fill="none" stroke="#222" stroke-width="10"/>
  <circle cx="200" cy="200" r="156" fill="url(#lip-lip)"/>
  <circle cx="200" cy="200" r="142" fill="#120018"/>
  <circle cx="200" cy="200" r="140" fill="none" stroke="#000" stroke-width="3" opacity="0.5"/>
  <line x1="200.0" y1="154.0" x2="200.0" y2="64.0" stroke="url(#lip-spk)" stroke-width="18" stroke-linecap="round"/><line x1="232.5" y1="167.5" x2="296.2" y2="103.8" stroke="url(#lip-spk)" stroke-width="18" stroke-linecap="round"/><line x1="246.0" y1="200.0" x2="336.0" y2="200.0" stroke="url(#lip-spk)" stroke-width="18" stroke-linecap="round"/><line x1="232.5" y1="232.5" x2="296.2" y2="296.2" stroke="url(#lip-spk)" stroke-width="18" stroke-linecap="round"/><line x1="200.0" y1="246.0" x2="200.0" y2="336.0" stroke="url(#lip-spk)" stroke-width="18" stroke-linecap="round"/><line x1="167.5" y1="232.5" x2="103.8" y2="296.2" stroke="url(#lip-spk)" stroke-width="18" stroke-linecap="round"/><line x1="154.0" y1="200.0" x2="64.0" y2="200.0" stroke="url(#lip-spk)" stroke-width="18" stroke-linecap="round"/><line x1="167.5" y1="167.5" x2="103.8" y2="103.8" stroke="url(#lip-spk)" stroke-width="18" stroke-linecap="round"/>
  <circle cx="200" cy="200" r="40" fill="url(#lip-cap)"/>
  <circle cx="200" cy="200" r="16" fill="#111"/>
  <text x="200" y="205" text-anchor="middle" font-family="Arial Black, sans-serif" font-size="9" fill="#f5d76e">MR</text>
  <circle cx="200.0" cy="172.0" r="4.2" fill="#9d4edd" stroke="#111" stroke-width="0.6"/><circle cx="226.6" cy="191.3" r="4.2" fill="#9d4edd" stroke="#111" stroke-width="0.6"/><circle cx="216.5" cy="222.7" r="4.2" fill="#9d4edd" stroke="#111" stroke-width="0.6"/><circle cx="183.5" cy="222.7" r="4.2" fill="#9d4edd" stroke="#111" stroke-width="0.6"/><circle cx="173.4" cy="191.3" r="4.2" fill="#9d4edd" stroke="#111" stroke-width="0.6"/>
</svg>
