<?xml version="1.0" encoding="UTF-8"?>
<svg xmlns="http://www.w3.org/2000/svg" viewBox="0 0 400 400" role="img" aria-label="Scraper 22 chrome rim">
  <title>Scraper 22 chrome rim</title>
  <defs>
    <radialGradient id="sc22-bg" cx="50%" cy="45%">
      <stop offset="0%" stop-color="#1a1424"/>
      <stop offset="100%" stop-color="#050506"/>
    </radialGradient>
    <radialGradient id="sc22-tire" cx="50%" cy="48%">
      <stop offset="70%" stop-color="#070707"/>
      <stop offset="84%" stop-color="#1c1c20"/>
      <stop offset="92%" stop-color="#0a0a0a"/>
      <stop offset="100%" stop-color="#050506"/>
    </radialGradient>
    <linearGradient id="sc22-lip" x1="0" y1="0" x2="1" y2="1"><stop offset="0%" stop-color="#ffffff"/><stop offset="33%" stop-color="#d7dce3"/><stop offset="67%" stop-color="#8d949e"/><stop offset="100%" stop-color="#f8fafc"/></linearGradient>
    <linearGradient id="sc22-spk" x1="0" y1="0" x2="1" y2="1"><stop offset="0%" stop-color="#f8fafc"/><stop offset="50%" stop-color="#a1a8b3"/><stop offset="100%" stop-color="#eceff3"/></linearGradient>
    <radialGradient id="sc22-cap" cx="35%" cy="30%">
      <stop offset="0%" stop-color="#ffffff"/>
      <stop offset="55%" stop-color="#d4d4d8"/>
      <stop offset="100%" stop-color="#222"/>
    </radialGradient>
  </defs>
  <rect width="400" height="400" fill="url(#sc22-bg)"/>
  <circle cx="200" cy="200" r="196" fill="url(#sc22-tire)"/>
  <circle cx="200" cy="200" r="176" fill="none" stroke="#2a2a2e" stroke-width="8"/>
  <circle cx="200" cy="200" r="158" fill="url(#sc22-lip)"/>
  <circle cx="200" cy="200" r="144" fill="#0b0b10"/>
  <circle cx="200" cy="200" r="142" fill="none" stroke="#000" stroke-width="3" opacity="0.55"/>
  <polygon points="190.5,153.0 209.5,153.0 227.0,66.7 173.0,66.7" fill="url(#sc22-spk)"/><polygon points="236.0,168.2 245.5,184.7 328.9,156.8 301.9,110.0" fill="url(#sc22-spk)"/><polygon points="245.5,215.3 236.0,231.8 301.9,290.0 328.9,243.2" fill="url(#sc22-spk)"/><polygon points="209.5,247.0 190.5,247.0 173.0,333.3 227.0,333.3" fill="url(#sc22-spk)"/><polygon points="164.0,231.8 154.5,215.3 71.1,243.2 98.1,290.0" fill="url(#sc22-spk)"/><polygon points="154.5,184.7 164.0,168.2 98.1,110.0 71.1,156.8" fill="url(#sc22-spk)"/>
  <circle cx="200" cy="200" r="44" fill="url(#sc22-cap)"/>
  <circle cx="200" cy="200" r="18" fill="#111"/>
  <text x="200" y="206" text-anchor="middle" font-family="Arial Black, sans-serif" font-size="10" fill="#f5d76e">MR</text>
  <circle cx="200.0" cy="170.0" r="5" fill="#d4d4d8" stroke="#111" stroke-width="0.8"/><circle cx="228.5" cy="190.7" r="5" fill="#d4d4d8" stroke="#111" stroke-width="0.8"/><circle cx="217.6" cy="224.3" r="5" fill="#d4d4d8" stroke="#111" stroke-width="0.8"/><circle cx="182.4" cy="224.3" r="5" fill="#d4d4d8" stroke="#111" stroke-width="0.8"/><circle cx="171.5" cy="190.7" r="5" fill="#d4d4d8" stroke="#111" stroke-width="0.8"/>
</svg>
