<?xml version="1.0" encoding="UTF-8"?>
<svg xmlns="http://www.w3.org/2000/svg" viewBox="0 0 400 400" role="img" aria-label="Wire chrome rim">
  <title>Wire chrome rim</title>
  <defs>
    <radialGradient id="wire-bg" cx="50%" cy="45%">
      <stop offset="0%" stop-color="#1a1424"/>
      <stop offset="100%" stop-color="#050506"/>
    </radialGradient>
    <radialGradient id="wire-tire" cx="50%" cy="48%">
      <stop offset="70%" stop-color="#070707"/>
      <stop offset="84%" stop-color="#1c1c20"/>
      <stop offset="92%" stop-color="#0a0a0a"/>
      <stop offset="100%" stop-color="#050506"/>
    </radialGradient>
    <linearGradient id="wire-lip" x1="0" y1="0" x2="1" y2="1"><stop offset="0%" stop-color="#ffffff"/><stop offset="33%" stop-color="#d7dce3"/><stop offset="67%" stop-color="#8d949e"/><stop offset="100%" stop-color="#f8fafc"/></linearGradient>
    <linearGradient id="wire-spk" x1="0" y1="0" x2="1" y2="1"><stop offset="0%" stop-color="#f8fafc"/><stop offset="50%" stop-color="#a1a8b3"/><stop offset="100%" stop-color="#eceff3"/></linearGradient>
    <radialGradient id="wire-cap" cx="35%" cy="30%">
      <stop offset="0%" stop-color="#ffffff"/>
      <stop offset="55%" stop-color="#d4d4d8"/>
      <stop offset="100%" stop-color="#222"/>
    </radialGradient>
  </defs>
  <rect width="400" height="400" fill="url(#wire-bg)"/>
  <circle cx="200" cy="200" r="196" fill="url(#wire-tire)"/>
  <circle cx="200" cy="200" r="176" fill="none" stroke="#2a2a2e" stroke-width="8"/>
  <circle cx="200" cy="200" r="158" fill="url(#wire-lip)"/>
  <circle cx="200" cy="200" r="144" fill="#0b0b10"/>
  <circle cx="200" cy="200" r="142" fill="none" stroke="#000" stroke-width="3" opacity="0.55"/>
  <circle cx="200" cy="200" r="58" fill="none" stroke="url(#wire-spk)" stroke-width="5"/><circle cx="200" cy="200" r="82" fill="none" stroke="url(#wire-spk)" stroke-width="5"/><circle cx="200" cy="200" r="106" fill="none" stroke="url(#wire-spk)" stroke-width="5"/><circle cx="200" cy="200" r="128" fill="none" stroke="url(#wire-spk)" stroke-width="5"/><polygon points="197.1,152.1 202.9,152.1 208.2,64.2 191.8,64.2" fill="url(#wire-spk)"/><polygon points="221.5,157.1 226.4,159.9 274.9,86.5 260.8,78.4" fill="url(#wire-spk)"/><polygon points="240.1,173.6 242.9,178.5 321.6,139.2 313.5,125.1" fill="url(#wire-spk)"/><polygon points="247.9,197.1 247.9,202.9 335.8,208.2 335.8,191.8" fill="url(#wire-spk)"/><polygon points="242.9,221.5 240.1,226.4 313.5,274.9 321.6,260.8" fill="url(#wire-spk)"/><polygon points="226.4,240.1 221.5,242.9 260.8,321.6 274.9,313.5" fill="url(#wire-spk)"/><polygon points="202.9,247.9 197.1,247.9 191.8,335.8 208.2,335.8" fill="url(#wire-spk)"/><polygon points="178.5,242.9 173.6,240.1 125.1,313.5 139.2,321.6" fill="url(#wire-spk)"/><polygon points="159.9,226.4 157.1,221.5 78.4,260.8 86.5,274.9" fill="url(#wire-spk)"/><polygon points="152.1,202.9 152.1,197.1 64.2,191.8 64.2,208.2" fill="url(#wire-spk)"/><polygon points="157.1,178.5 159.9,173.6 86.5,125.1 78.4,139.2" fill="url(#wire-spk)"/><polygon points="173.6,159.9 178.5,157.1 139.2,78.4 125.1,86.5" fill="url(#wire-spk)"/><polygon points="199.0,150.0 201.0,150.0 202.7,64.0 197.3,64.0" fill="url(#wire-spk)"/><polygon points="207.7,150.6 209.7,150.9 226.3,66.6 220.9,65.6" fill="url(#wire-spk)"/><polygon points="216.2,152.7 218.0,153.4 249.1,73.2 243.9,71.3" fill="url(#wire-spk)"/><polygon points="224.1,156.2 225.9,157.2 270.3,83.6 265.6,80.9" fill="url(#wire-spk)"/><polygon points="231.4,161.1 232.9,162.3 289.5,97.6 285.3,94.1" fill="url(#wire-spk)"/><polygon points="237.7,167.1 238.9,168.6 305.9,114.7 302.4,110.5" fill="url(#wire-spk)"/><polygon points="242.8,174.1 243.8,175.9 319.1,134.4 316.4,129.7" fill="url(#wire-spk)"/><polygon points="246.6,182.0 247.3,183.8 328.7,156.1 326.8,150.9" fill="url(#wire-spk)"/><polygon points="249.1,190.3 249.4,192.3 334.4,179.1 333.4,173.7" fill="url(#wire-spk)"/><polygon points="250.0,199.0 250.0,201.0 336.0,202.7 336.0,197.3" fill="url(#wire-spk)"/><polygon points="249.4,207.7 249.1,209.7 333.4,226.3 334.4,220.9" fill="url(#wire-spk)"/><polygon points="247.3,216.2 246.6,218.0 326.8,249.1 328.7,243.9" fill="url(#wire-spk)"/><polygon points="243.8,224.1 242.8,225.9 316.4,270.3 319.1,265.6" fill="url(#wire-spk)"/><polygon points="238.9,231.4 237.7,232.9 302.4,289.5 305.9,285.3" fill="url(#wire-spk)"/><polygon points="232.9,237.7 231.4,238.9 285.3,305.9 289.5,302.4" fill="url(#wire-spk)"/><polygon points="225.9,242.8 224.1,243.8 265.6,319.1 270.3,316.4" fill="url(#wire-spk)"/><polygon points="218.0,246.6 216.2,247.3 243.9,328.7 249.1,326.8" fill="url(#wire-spk)"/><polygon points="209.7,249.1 207.7,249.4 220.9,334.4 226.3,333.4" fill="url(#wire-spk)"/><polygon points="201.0,250.0 199.0,250.0 197.3,336.0 202.7,336.0" fill="url(#wire-spk)"/><polygon points="192.3,249.4 190.3,249.1 173.7,333.4 179.1,334.4" fill="url(#wire-spk)"/><polygon points="183.8,247.3 182.0,246.6 150.9,326.8 156.1,328.7" fill="url(#wire-spk)"/><polygon points="175.9,243.8 174.1,242.8 129.7,316.4 134.4,319.1" fill="url(#wire-spk)"/><polygon points="168.6,238.9 167.1,237.7 110.5,302.4 114.7,305.9" fill="url(#wire-spk)"/><polygon points="162.3,232.9 161.1,231.4 94.1,285.3 97.6,289.5" fill="url(#wire-spk)"/><polygon points="157.2,225.9 156.2,224.1 80.9,265.6 83.6,270.3" fill="url(#wire-spk)"/><polygon points="153.4,218.0 152.7,216.2 71.3,243.9 73.2,249.1" fill="url(#wire-spk)"/><polygon points="150.9,209.7 150.6,207.7 65.6,220.9 66.6,226.3" fill="url(#wire-spk)"/><polygon points="150.0,201.0 150.0,199.0 64.0,197.3 64.0,202.7" fill="url(#wire-spk)"/><polygon points="150.6,192.3 150.9,190.3 66.6,173.7 65.6,179.1" fill="url(#wire-spk)"/><polygon points="152.7,183.8 153.4,182.0 73.2,150.9 71.3,156.1" fill="url(#wire-spk)"/><polygon points="156.2,175.9 157.2,174.1 83.6,129.7 80.9,134.4" fill="url(#wire-spk)"/><polygon points="161.1,168.6 162.3,167.1 97.6,110.5 94.1,114.7" fill="url(#wire-spk)"/><polygon points="167.1,162.3 168.6,161.1 114.7,94.1 110.5,97.6" fill="url(#wire-spk)"/><polygon points="174.1,157.2 175.9,156.2 134.4,80.9 129.7,83.6" fill="url(#wire-spk)"/><polygon points="182.0,153.4 183.8,152.7 156.1,71.3 150.9,73.2" fill="url(#wire-spk)"/><polygon points="190.3,150.9 192.3,150.6 179.1,65.6 173.7,66.6" fill="url(#wire-spk)"/>
  <circle cx="200" cy="200" r="44" fill="url(#wire-cap)"/>
  <circle cx="200" cy="200" r="18" fill="#111"/>
  <text x="200" y="206" text-anchor="middle" font-family="Arial Black, sans-serif" font-size="10" fill="#f5d76e">MR</text>
  <circle cx="200.0" cy="170.0" r="5" fill="#d4d4d8" stroke="#111" stroke-width="0.8"/><circle cx="228.5" cy="190.7" r="5" fill="#d4d4d8" stroke="#111" stroke-width="0.8"/><circle cx="217.6" cy="224.3" r="5" fill="#d4d4d8" stroke="#111" stroke-width="0.8"/><circle cx="182.4" cy="224.3" r="5" fill="#d4d4d8" stroke="#111" stroke-width="0.8"/><circle cx="171.5" cy="190.7" r="5" fill="#d4d4d8" stroke="#111" stroke-width="0.8"/>
</svg>
